<svg width="48" height="48" viewBox="0 0 48 48" fill="none" xmlns="http://www.w3.org/2000/svg">
<path d="M14.325 34H18.2662V24H14.325V34ZM30.0901 34H34.0314V14H30.0901V34ZM22.2075 34H26.1488V28H22.2075V34ZM22.2075 24H26.1488V20H22.2075V24ZM10.3837 42C9.29981 42 8.37197 41.6083 7.60013 40.825C6.8283 40.0417 6.44238 39.1 6.44238 38V10C6.44238 8.9 6.8283 7.95833 7.60013 7.175C8.37197 6.39167 9.29981 6 10.3837 6H37.9727C39.0565 6 39.9844 6.39167 40.7562 7.175C41.528 7.95833 41.9139 8.9 41.9139 10V38C41.9139 39.1 41.528 40.0417 40.7562 40.825C39.9844 41.6083 39.0565 42 37.9727 42H10.3837ZM10.3837 38H37.9727V10H10.3837V38Z" fill="#69FFC8"/>
<path d="M14.325 34H18.2662V24H14.325V34ZM30.0901 34H34.0314V14H30.0901V34ZM22.2075 34H26.1488V28H22.2075V34ZM22.2075 24H26.1488V20H22.2075V24ZM10.3837 42C9.29981 42 8.37197 41.6083 7.60013 40.825C6.8283 40.0417 6.44238 39.1 6.44238 38V10C6.44238 8.9 6.8283 7.95833 7.60013 7.175C8.37197 6.39167 9.29981 6 10.3837 6H37.9727C39.0565 6 39.9844 6.39167 40.7562 7.175C41.528 7.95833 41.9139 8.9 41.9139 10V38C41.9139 39.1 41.528 40.0417 40.7562 40.825C39.9844 41.6083 39.0565 42 37.9727 42H10.3837ZM10.3837 38H37.9727V10H10.3837V38Z" fill="#69FFC8"/>
</svg>
