<svg width="317" height="53" viewBox="0 0 317 53" fill="none" xmlns="http://www.w3.org/2000/svg">
<path d="M103.252 51.0472C91.7274 49.4742 87.1896 45.8495 71.0206 25.3174L60.181 11.5771C59.6331 10.8894 60.2153 10.3199 65.2894 6.58324C70.7702 2.54717 70.0523 2.41841 74.7157 8.31752C98.1383 37.9397 98.029 39.2207 107.74 39.2715C123.616 39.3612 125.097 15.9471 109.351 13.8065C105.605 13.2946 97.3263 14.969 94.5738 16.8246C92.8973 17.9439 92.4548 17.5875 89.2197 12.4933C85.1197 6.04262 85.1889 5.86239 92.6211 3.18042C106.585 -1.83162 117.973 -0.150878 126.646 8.19813C144.715 25.6084 128.925 54.5568 103.265 51.0472M21.0339 50.4507C-8.31567 43.8847 -4.56033 2.22057 25.5722 0.198794C39.5578 -0.734533 46.7465 4.22864 64.8952 27.3541C76.5004 42.1438 75.9493 40.1989 69.8489 44.7622C63.8237 49.2597 65.95 50.6144 53.0127 34.0275C38.4315 15.468 36.1127 13.6314 27.1508 13.559C15.9906 13.4732 10.4284 25.2572 17.621 33.7456C21.6252 38.4814 34.239 39.2158 41.2126 35.1367C44.5272 33.2349 46.0985 41.9569 48.1068 45.6273C49.5244 48.2248 28.8301 52.1794 21.0339 50.4507Z" fill="#69FFC8"/>
<path d="M188.697 34.1811C188.702 34.3483 188.652 34.5127 188.555 34.6488C188.436 34.7942 188.281 34.9066 188.106 34.975C187.828 35.0845 187.535 35.1533 187.236 35.1794C186.777 35.2309 186.314 35.2539 185.852 35.2483C185.378 35.2512 184.905 35.225 184.434 35.1699C184.139 35.1411 183.848 35.0703 183.572 34.9596C183.395 34.8916 183.238 34.778 183.118 34.6304C183.022 34.4937 182.973 34.329 182.979 34.1618L183.024 15.91C183.064 14.4651 182.928 13.0206 182.619 11.6081C182.384 10.6102 181.976 9.66063 181.416 8.80174C180.902 8.02864 180.193 7.40542 179.361 6.99569C178.448 6.55664 177.445 6.33791 176.433 6.35711C174.877 6.39295 173.372 6.92178 172.136 7.86749C170.437 9.1399 168.919 10.6378 167.624 12.3199L167.571 34.1097C167.577 34.277 167.527 34.4413 167.43 34.5774C167.31 34.7228 167.156 34.8352 166.981 34.9036C166.702 35.0123 166.409 35.0811 166.111 35.108C165.64 35.1599 165.167 35.1829 164.693 35.1768C164.23 35.1793 163.768 35.1532 163.309 35.0985C163.007 35.0694 162.71 34.9986 162.427 34.8882C162.246 34.8259 162.088 34.7113 161.973 34.559C161.889 34.4174 161.847 34.2547 161.853 34.0904L161.93 2.91723C161.923 2.75441 161.961 2.59293 162.038 2.44943C162.139 2.29528 162.283 2.17471 162.453 2.10305C162.705 1.98978 162.974 1.92056 163.25 1.8984C163.676 1.86055 164.105 1.84414 164.534 1.84924C165.042 1.85095 165.463 1.85238 165.797 1.90701C166.067 1.92615 166.33 1.99745 166.573 2.11696C166.732 2.19926 166.87 2.31907 166.973 2.4661C167.057 2.60763 167.098 2.77031 167.092 2.93467L167.082 7.05453C168.567 5.32152 170.348 3.86682 172.342 2.75845C173.968 1.89379 175.78 1.44066 177.622 1.43866C179.43 1.38553 181.227 1.75336 182.869 2.51311C184.224 3.17004 185.403 4.1418 186.306 5.34712C187.209 6.58685 187.85 7.9978 188.189 9.49344C188.595 11.3656 188.781 13.2786 188.743 15.1936L188.697 34.1811Z" fill="white"/>
<path d="M224.757 17.3499C224.793 17.7005 224.751 18.0544 224.634 18.3869C224.518 18.7193 224.33 19.022 224.084 19.2738C223.652 19.6442 223.1 19.8444 222.531 19.837L202.001 19.7677C201.978 21.3436 202.15 22.9165 202.511 24.451C202.814 25.7586 203.408 26.9813 204.248 28.0283C205.091 29.0469 206.177 29.8371 207.405 30.3263C208.928 30.8994 210.546 31.1751 212.171 31.1383C213.502 31.1573 214.831 31.0408 216.138 30.7905C217.163 30.5852 218.173 30.3138 219.163 29.9781C220.006 29.68 220.702 29.4081 221.251 29.1692C221.643 28.9688 222.07 28.8453 222.509 28.8056C222.662 28.8039 222.813 28.8462 222.943 28.9275C223.077 29.0146 223.179 29.1413 223.237 29.2896C223.317 29.505 223.368 29.7301 223.389 29.9589C223.429 30.3097 223.446 30.6628 223.44 31.0158C223.439 31.3168 223.439 31.5776 223.405 31.7982C223.385 31.9957 223.356 32.192 223.316 32.3864C223.284 32.551 223.225 32.709 223.141 32.854C223.053 32.9959 222.949 33.1278 222.833 33.2476C222.483 33.5 222.102 33.7076 221.701 33.8657C220.918 34.2128 220.108 34.4941 219.278 34.7069C218.135 35.0231 216.976 35.2782 215.805 35.471C214.425 35.6886 213.029 35.7935 211.632 35.7846C209.341 35.8204 207.061 35.4481 204.9 34.6851C203.052 34.0131 201.388 32.9171 200.04 31.4852C198.664 29.9598 197.651 28.1432 197.077 26.1715C196.374 23.7643 196.042 21.2644 196.092 18.7579C196.062 16.3067 196.415 13.8662 197.139 11.5249C197.763 9.52979 198.787 7.68312 200.149 6.09773C201.447 4.61206 203.064 3.43803 204.878 2.66268C206.843 1.85164 208.954 1.45356 211.08 1.49316C213.226 1.44302 215.358 1.85627 217.33 2.70475C218.965 3.42945 220.413 4.51876 221.562 5.88918C222.693 7.26483 223.523 8.86264 223.998 10.579C224.52 12.4454 224.777 14.3758 224.76 16.3133L224.757 17.3499ZM219.01 15.6384C219.089 12.638 218.426 10.2793 217.021 8.56243C215.615 6.85223 213.537 5.98914 210.768 5.97979C209.482 5.9476 208.206 6.21579 207.042 6.76307C206.008 7.26557 205.095 7.98302 204.361 8.86744C203.622 9.77713 203.053 10.8129 202.682 11.9249C202.28 13.1041 202.052 14.3357 202.004 15.581L219.01 15.6384Z" fill="white"/>
<path d="M254.954 33.7268C255.113 33.969 255.209 34.2478 255.232 34.537C255.23 34.6488 255.197 34.7579 255.138 34.853C255.079 34.948 254.996 35.0255 254.897 35.0776C254.585 35.2415 254.244 35.3404 253.893 35.3684C253.313 35.4292 252.73 35.4563 252.147 35.4495C251.479 35.4472 250.904 35.4453 250.502 35.3904C250.174 35.3693 249.848 35.3098 249.533 35.2133C249.326 35.1541 249.136 35.0456 248.979 34.8971C248.85 34.7706 248.74 34.626 248.652 34.4679L241.199 22.0765L233.719 34.4175C233.631 34.575 233.52 34.7188 233.391 34.8444C233.233 34.9919 233.043 35.0991 232.835 35.1569C232.526 35.2503 232.207 35.3076 231.885 35.3275C231.49 35.3262 230.969 35.3779 230.327 35.3758C229.777 35.3784 229.228 35.3475 228.682 35.2833C228.352 35.2538 228.033 35.1523 227.746 34.9858C227.656 34.9282 227.584 34.8473 227.536 34.7518C227.488 34.6564 227.466 34.5498 227.473 34.4432C227.512 34.15 227.626 33.8718 227.803 33.635L237.537 18.4593L228.391 3.77489C228.235 3.52709 228.135 3.24827 228.099 2.95796C228.098 2.84679 228.126 2.73738 228.182 2.64112C228.237 2.54486 228.318 2.46526 228.414 2.4106C228.72 2.23364 229.065 2.13381 229.418 2.11972C230.012 2.06735 230.608 2.04481 231.204 2.05219C231.873 2.05444 232.408 2.05625 232.815 2.11113C233.136 2.13286 233.454 2.18545 233.765 2.26817C233.958 2.32004 234.137 2.41689 234.286 2.55082C234.407 2.674 234.51 2.814 234.592 2.96652L241.666 14.5942L248.896 3.01484C248.989 2.87805 249.094 2.75071 249.212 2.63469C249.347 2.50783 249.507 2.40844 249.68 2.342C249.947 2.24603 250.227 2.18843 250.51 2.17091C250.871 2.13869 251.359 2.12028 251.981 2.12238C252.531 2.11949 253.08 2.1459 253.626 2.20151C253.959 2.22334 254.283 2.31082 254.582 2.45888C254.678 2.51035 254.755 2.59007 254.804 2.68718C254.853 2.78428 254.871 2.89405 254.855 3.00154C254.803 3.31115 254.684 3.60542 254.505 3.86311L245.361 18.3118L254.954 33.7268Z" fill="white"/>
<path d="M287.061 34.4799C287.066 34.6443 287.024 34.8067 286.939 34.9476C286.828 35.096 286.677 35.2093 286.504 35.2739C286.242 35.3793 285.968 35.4482 285.687 35.4785C285.279 35.5297 284.868 35.5529 284.457 35.5479C284.023 35.5511 283.59 35.5251 283.159 35.4699C282.885 35.4398 282.617 35.369 282.364 35.2599C282.201 35.1946 282.064 35.0794 281.97 34.9309C281.894 34.7868 281.858 34.6251 281.865 34.4623L281.875 30.3224C280.38 32.0452 278.596 33.4924 276.601 34.5984C274.98 35.4604 273.172 35.9135 271.335 35.9182C269.529 35.9674 267.735 35.6069 266.088 34.8638C264.728 34.2111 263.548 33.2359 262.651 32.0231C261.747 30.7787 261.107 29.3633 260.768 27.8634C260.361 25.9688 260.175 24.0335 260.214 22.0964L260.26 3.21595C260.255 3.05156 260.297 2.88916 260.382 2.7482C260.502 2.59079 260.665 2.47076 260.851 2.402C261.139 2.28597 261.444 2.217 261.754 2.19772C262.122 2.16552 262.583 2.14701 263.138 2.14889C263.693 2.15076 264.155 2.15232 264.522 2.20707C264.826 2.2281 265.124 2.29916 265.405 2.41738C265.586 2.49496 265.746 2.61474 265.872 2.76674C265.969 2.90349 266.018 3.06816 266.011 3.23538L265.967 21.3868C265.927 22.8572 266.056 24.3275 266.351 25.7689C266.573 26.7713 266.981 27.7233 267.554 28.5752C268.082 29.3396 268.791 29.9622 269.616 30.388C270.517 30.8453 271.514 31.0782 272.524 31.0666C274.074 31.0336 275.572 30.5068 276.801 29.5629C278.509 28.2743 280.037 26.7635 281.346 25.0704L281.399 3.28737C281.394 3.12297 281.436 2.96058 281.521 2.81961C281.642 2.66373 281.805 2.54405 281.99 2.47341C282.272 2.36026 282.57 2.29133 282.873 2.26907C283.234 2.23684 283.702 2.21836 284.277 2.22031C284.852 2.22225 285.294 2.22374 285.661 2.27849C285.961 2.29767 286.255 2.36881 286.53 2.48875C286.707 2.57349 286.866 2.69219 286.998 2.83812C287.101 2.97194 287.155 3.13764 287.15 3.3068L287.061 34.4799Z" fill="white"/>
<path d="M316.208 26.0806C316.231 27.5489 315.926 29.0034 315.315 30.3382C314.737 31.57 313.875 32.6467 312.8 33.4799C311.64 34.3665 310.322 35.0227 308.916 35.4132C307.302 35.8627 305.633 36.0823 303.958 36.0653C302.896 36.0657 301.836 35.9748 300.789 35.7937C299.883 35.6318 298.989 35.4052 298.115 35.1158C297.426 34.8884 296.756 34.6066 296.111 34.273C295.679 34.0619 295.273 33.8001 294.902 33.4931C294.63 33.2279 294.438 32.891 294.35 32.5214C294.221 31.9644 294.164 31.3932 294.18 30.8219C294.177 30.4505 294.203 30.0794 294.256 29.7119C294.286 29.4658 294.343 29.2238 294.425 28.9901C294.478 28.8283 294.581 28.6878 294.72 28.5898C294.851 28.5094 295.002 28.4681 295.155 28.4709C295.563 28.5303 295.95 28.6928 296.278 28.9428C296.779 29.2522 297.386 29.6154 298.114 29.9724C298.944 30.3854 299.807 30.7284 300.694 30.9977C301.806 31.3318 302.962 31.4936 304.123 31.4775C305.009 31.4917 305.893 31.3913 306.752 31.1787C307.464 30.9917 308.137 30.6816 308.741 30.2624C309.313 29.8753 309.775 29.347 310.082 28.7286C310.413 28.0367 310.575 27.2764 310.556 26.5096C310.585 25.7183 310.351 24.9393 309.893 24.2935C309.398 23.6517 308.787 23.1094 308.091 22.6956C307.303 22.2021 306.468 21.787 305.599 21.4565L302.746 20.3499C301.766 19.9512 300.807 19.5015 299.873 19.0025C298.966 18.5052 298.134 17.8808 297.403 17.1482C296.651 16.4146 296.046 15.5428 295.624 14.5805C295.153 13.4515 294.928 12.2355 294.964 11.0133C294.965 9.80493 295.209 8.60941 295.681 7.49754C296.164 6.36956 296.896 5.36584 297.822 4.56184C298.867 3.67305 300.075 2.99569 301.378 2.56731C302.98 2.03534 304.662 1.7831 306.349 1.82161C307.185 1.82368 308.019 1.89585 308.843 2.03738C309.603 2.16208 310.353 2.33666 311.089 2.55998C311.679 2.73864 312.253 2.96425 312.807 3.23463C313.18 3.4306 313.537 3.65544 313.875 3.90709C314.067 4.03809 314.232 4.20434 314.362 4.397C314.445 4.54257 314.504 4.70101 314.535 4.86578C314.566 5.03978 314.598 5.26284 314.633 5.53496C314.674 5.8432 314.691 6.15405 314.685 6.46483C314.689 6.80677 314.67 7.14859 314.629 7.48798C314.605 7.73147 314.546 7.97016 314.453 8.19637C314.395 8.35557 314.293 8.49462 314.158 8.59668C314.046 8.67436 313.913 8.71592 313.776 8.71578C313.45 8.66795 313.141 8.53547 312.881 8.33151C312.391 8.02614 311.882 7.75189 311.358 7.51037C310.645 7.18784 309.91 6.91495 309.16 6.69364C308.221 6.42342 307.248 6.2917 306.272 6.30264C305.404 6.28509 304.539 6.39255 303.703 6.62169C303.037 6.80071 302.416 7.11763 301.881 7.55193C301.418 7.9416 301.051 8.4323 300.808 8.98633C300.559 9.55298 300.433 10.1654 300.435 10.7843C300.398 11.5933 300.632 12.3918 301.099 13.0539C301.592 13.6992 302.201 14.2477 302.894 14.6719C303.702 15.1437 304.552 15.5406 305.432 15.8576L308.319 17.0245C309.303 17.4247 310.272 17.8739 311.225 18.372C312.15 18.843 313.007 19.4402 313.768 20.1464C314.577 20.9096 315.214 21.8371 315.635 22.8665C316.055 23.8958 316.251 25.0032 316.208 26.1141L316.208 26.0806Z" fill="white"/>
<path d="M168.297 50.1415C168.41 50.1419 168.464 50.1956 168.464 50.3026L168.461 51.2256C168.464 51.2478 168.461 51.2703 168.453 51.2912C168.445 51.3121 168.433 51.331 168.417 51.3464C168.4 51.3619 168.381 51.3734 168.36 51.3802C168.338 51.3869 168.316 51.3888 168.294 51.3856L163.425 51.3691C163.318 51.3687 163.264 51.3151 163.265 51.2013L163.284 43.416C163.284 43.3023 163.338 43.249 163.445 43.2493L168.126 43.2652C168.149 43.2618 168.172 43.2639 168.194 43.2712C168.216 43.2785 168.236 43.2908 168.252 43.3071C168.268 43.3234 168.28 43.3433 168.287 43.3651C168.295 43.387 168.297 43.4102 168.293 43.4329L168.291 44.3559C168.291 44.4629 168.237 44.5163 168.123 44.5159L164.632 44.5041L164.627 46.6243L167.824 46.6351C167.937 46.6355 167.991 46.6959 167.991 46.8096L167.988 47.7192C167.988 47.8329 167.934 47.8929 167.821 47.8926L164.624 47.8818L164.618 50.1291L168.297 50.1415Z" fill="white"/>
<path d="M187.805 51.4428C187.698 51.4424 187.645 51.3888 187.645 51.2751L187.664 43.49C187.664 43.3763 187.718 43.323 187.825 43.3234L188.969 43.3272C189.01 43.3262 189.051 43.3363 189.088 43.3564C189.124 43.3765 189.154 43.4059 189.176 43.4416L191.386 47.3149C191.926 48.2865 192.305 48.97 192.512 49.372L192.552 49.3721C192.481 48.4021 192.45 47.3653 192.452 46.2885L192.459 43.5062C192.459 43.3925 192.52 43.3392 192.633 43.3396L193.657 43.3431C193.679 43.3398 193.703 43.3418 193.724 43.3491C193.746 43.3564 193.766 43.3687 193.782 43.385C193.798 43.4013 193.811 43.4212 193.818 43.443C193.825 43.4649 193.827 43.4881 193.823 43.5108L193.804 51.3026C193.808 51.3253 193.806 51.3485 193.798 51.3703C193.791 51.3921 193.779 51.4119 193.763 51.4281C193.746 51.4443 193.726 51.4565 193.705 51.4636C193.683 51.4707 193.659 51.4727 193.637 51.4692L192.486 51.4653C192.447 51.4647 192.408 51.4538 192.375 51.4337C192.341 51.4137 192.312 51.3852 192.293 51.351L190.155 47.7856C189.706 47.0622 189.302 46.3127 188.943 45.541L188.91 45.5408C188.974 46.7182 189.005 47.755 189.002 48.6646L188.996 51.2729C188.996 51.3866 188.942 51.44 188.835 51.4396L187.805 51.4428Z" fill="white"/>
<path d="M218.434 50.2938C218.548 50.2941 218.602 50.3478 218.601 50.4549L218.599 51.3779C218.601 51.4001 218.598 51.4225 218.591 51.4435C218.583 51.4644 218.57 51.4833 218.554 51.4987C218.538 51.5141 218.519 51.5257 218.497 51.5324C218.476 51.5392 218.454 51.541 218.431 51.5378L213.563 51.5214C213.456 51.521 213.402 51.4673 213.402 51.3536L213.421 43.5683C213.422 43.4546 213.475 43.4012 213.582 43.4016L218.264 43.4174C218.378 43.4178 218.438 43.4715 218.437 43.5852L218.435 44.5082C218.435 44.6152 218.375 44.6685 218.261 44.6682L214.77 44.6564L214.765 46.7766L217.961 46.7874C218.075 46.7878 218.129 46.8482 218.128 46.9619L218.126 47.8715C218.126 47.9852 218.072 48.0452 217.958 48.0448L214.762 48.034L214.756 50.2813L218.434 50.2938Z" fill="white"/>
<path d="M242.323 51.6099C242.284 51.6107 242.245 51.6004 242.21 51.5802C242.176 51.56 242.148 51.5307 242.13 51.4956L240.13 48.6329L239.161 48.6297L239.154 51.432C239.154 51.5457 239.1 51.599 238.993 51.5987L237.95 51.5952C237.843 51.5948 237.789 51.5411 237.79 51.4274L237.809 43.6423C237.809 43.5286 237.863 43.4753 237.97 43.4757L240.605 43.4846C241.389 43.4352 242.164 43.6758 242.783 44.1607C243.226 44.6157 243.496 45.2116 243.546 45.8448C243.596 46.4779 243.422 47.1082 243.055 47.6262C242.699 48.0589 242.209 48.3608 241.662 48.4843L243.735 51.4074C243.757 51.4364 243.768 51.4716 243.768 51.5078C243.768 51.5747 243.721 51.608 243.634 51.6077L242.323 51.6099ZM239.17 44.7371L239.164 47.4124L240.595 47.4172C241.014 47.453 241.431 47.3382 241.773 47.0935C241.908 46.9661 242.012 46.8098 242.079 46.6364C242.145 46.4629 242.172 46.2767 242.156 46.0915C242.173 45.9044 242.148 45.7159 242.082 45.5397C242.017 45.3636 241.913 45.2043 241.778 45.0736C241.437 44.8266 241.02 44.709 240.601 44.7419L239.17 44.7371Z" fill="white"/>
<path d="M267.279 51.5119C266.76 51.7292 266.202 51.8366 265.64 51.8274C265.094 51.8296 264.554 51.7161 264.056 51.4944C263.584 51.2855 263.184 50.945 262.901 50.514C262.602 50.0302 262.455 49.4685 262.477 48.9006L262.483 46.319C262.463 45.7527 262.609 45.1931 262.902 44.7085C263.17 44.2823 263.56 43.946 264.021 43.7425C264.512 43.5264 265.044 43.4187 265.58 43.4267C266.066 43.4296 266.55 43.4987 267.017 43.6322C267.473 43.7566 267.907 43.9474 268.307 44.1984C268.333 44.214 268.355 44.2355 268.371 44.2611C268.387 44.2867 268.397 44.3157 268.4 44.3458C268.396 44.3791 268.384 44.4111 268.366 44.4394L267.796 45.22C267.784 45.2435 267.766 45.2633 267.743 45.2774C267.721 45.2914 267.695 45.2992 267.669 45.2998C267.636 45.3082 267.601 45.3081 267.568 45.2995C266.961 44.9403 266.268 44.753 265.563 44.7576C265.114 44.7353 264.672 44.8817 264.325 45.1681C264.163 45.3254 264.036 45.5161 263.955 45.7272C263.873 45.9383 263.839 46.1647 263.854 46.3905L263.848 48.9387C263.833 49.167 263.871 49.3956 263.958 49.607C264.046 49.8183 264.181 50.0068 264.353 50.1577C264.722 50.4404 265.178 50.5861 265.643 50.57C265.949 50.5732 266.254 50.5291 266.546 50.4393C266.789 50.3675 267.016 50.2503 267.216 50.0938L267.22 48.3415L265.695 48.3363C265.588 48.336 265.535 48.2756 265.535 48.1619L265.537 47.2657C265.538 47.152 265.591 47.0919 265.698 47.0923L268.373 47.1013C268.48 47.1017 268.534 47.1621 268.533 47.2758L268.525 50.4728C268.529 50.5054 268.525 50.5385 268.515 50.5696C268.504 50.6008 268.487 50.6293 268.465 50.6531C268.131 51.0162 267.728 51.3083 267.279 51.5119Z" fill="white"/>
<path d="M289.22 51.5923C289.22 51.706 289.173 51.7594 289.066 51.759L288.014 51.7554C287.907 51.7551 287.854 51.7014 287.854 51.5877L287.873 43.7944C287.873 43.6807 287.927 43.6273 288.034 43.6277L289.086 43.6312C289.193 43.6316 289.239 43.6853 289.239 43.799L289.22 51.5923Z" fill="white"/>
<path d="M308.09 51.8078C307.956 51.8073 307.909 51.747 307.95 51.6133L310.704 43.8312C310.715 43.7924 310.739 43.7585 310.772 43.7344C310.805 43.7104 310.844 43.6977 310.885 43.698L312.182 43.7024C312.223 43.6984 312.265 43.71 312.298 43.7348C312.331 43.7597 312.354 43.796 312.362 43.8368L315.071 51.6441C315.076 51.6662 315.076 51.6889 315.071 51.711C315.071 51.7979 315.024 51.8379 314.924 51.8375L313.807 51.8338C313.764 51.8382 313.721 51.8271 313.685 51.8025C313.65 51.7778 313.624 51.7412 313.613 51.6994L313.063 49.9787L309.953 49.9682L309.394 51.6851C309.382 51.7262 309.356 51.7618 309.32 51.7861C309.285 51.8103 309.242 51.8216 309.2 51.8182L308.09 51.8078ZM311.503 45.1915L310.344 48.7255L312.698 48.7335L311.563 45.1917L311.503 45.1915Z" fill="white"/>
</svg>
