<svg width="65" height="68" viewBox="0 0 65 68" fill="none" xmlns="http://www.w3.org/2000/svg">
<path d="M32.9806 34C29.8374 34 27.1465 32.825 24.9082 30.475C22.6698 28.125 21.5506 25.3 21.5506 22C21.5506 18.7 22.6698 15.875 24.9082 13.525C27.1465 11.175 29.8374 10 32.9806 10C36.1239 10 38.8147 11.175 41.053 13.525C43.2914 15.875 44.4106 18.7 44.4106 22C44.4106 25.3 43.2914 28.125 41.053 30.475C38.8147 32.825 36.1239 34 32.9806 34ZM10.1206 58V49.6C10.1206 47.9 10.5373 46.3375 11.3708 44.9125C12.2042 43.4875 13.3115 42.4 14.6926 41.65C17.6454 40.1 20.6457 38.9375 23.6937 38.1625C26.7417 37.3875 29.8374 37 32.9806 37C36.1239 37 39.2195 37.3875 42.2675 38.1625C45.3155 38.9375 48.3159 40.1 51.2686 41.65C52.6497 42.4 53.757 43.4875 54.5905 44.9125C55.4239 46.3375 55.8406 47.9 55.8406 49.6V58H10.1206ZM15.8356 52H50.1256V49.6C50.1256 49.05 49.9946 48.55 49.7327 48.1C49.4708 47.65 49.1255 47.3 48.6969 47.05C46.1251 45.7 43.5295 44.6875 40.9102 44.0125C38.2908 43.3375 35.6476 43 32.9806 43C30.3136 43 27.6704 43.3375 25.051 44.0125C22.4317 44.6875 19.8361 45.7 17.2644 47.05C16.8357 47.3 16.4904 47.65 16.2285 48.1C15.9666 48.55 15.8356 49.05 15.8356 49.6V52ZM32.9806 28C34.5522 28 35.8976 27.4125 37.0168 26.2375C38.136 25.0625 38.6956 23.65 38.6956 22C38.6956 20.35 38.136 18.9375 37.0168 17.7625C35.8976 16.5875 34.5522 16 32.9806 16C31.409 16 30.0636 16.5875 28.9444 17.7625C27.8252 18.9375 27.2656 20.35 27.2656 22C27.2656 23.65 27.8252 25.0625 28.9444 26.2375C30.0636 27.4125 31.409 28 32.9806 28Z" fill="#69FFC8"/>
</svg>
