<svg width="49" height="48" viewBox="0 0 49 48" fill="none" xmlns="http://www.w3.org/2000/svg">
<path d="M23.8086 40C23.9419 40 24.0752 39.9667 24.2086 39.9C24.3419 39.8333 24.4419 39.7667 24.5086 39.7L40.9086 23.3C41.3086 22.9 41.6002 22.45 41.7836 21.95C41.9669 21.45 42.0586 20.95 42.0586 20.45C42.0586 19.9167 41.9669 19.4083 41.7836 18.925C41.6002 18.4417 41.3086 18.0167 40.9086 17.65L32.4086 9.15C32.0419 8.75 31.6169 8.45833 31.1336 8.275C30.6502 8.09167 30.1419 8 29.6086 8C29.1086 8 28.6086 8.09167 28.1086 8.275C27.6086 8.45833 27.1586 8.75 26.7586 9.15L26.2086 9.7L29.9086 13.45C30.4086 13.9167 30.7752 14.45 31.0086 15.05C31.2419 15.65 31.3586 16.2833 31.3586 16.95C31.3586 18.35 30.8836 19.525 29.9336 20.475C28.9836 21.425 27.8086 21.9 26.4086 21.9C25.7419 21.9 25.1002 21.7833 24.4836 21.55C23.8669 21.3167 23.3252 20.9667 22.8586 20.5L19.1086 16.8L10.3586 25.55C10.2586 25.65 10.1836 25.7583 10.1336 25.875C10.0836 25.9917 10.0586 26.1167 10.0586 26.25C10.0586 26.5167 10.1586 26.7583 10.3586 26.975C10.5586 27.1917 10.7919 27.3 11.0586 27.3C11.1919 27.3 11.3252 27.2667 11.4586 27.2C11.5919 27.1333 11.6919 27.0667 11.7586 27L18.5586 20.2L21.3586 23L14.6086 29.8C14.5086 29.9 14.4336 30.0083 14.3836 30.125C14.3336 30.2417 14.3086 30.3667 14.3086 30.5C14.3086 30.7667 14.4086 31 14.6086 31.2C14.8086 31.4 15.0419 31.5 15.3086 31.5C15.4419 31.5 15.5752 31.4667 15.7086 31.4C15.8419 31.3333 15.9419 31.2667 16.0086 31.2L22.8086 24.45L25.6086 27.25L18.8586 34.05C18.7586 34.1167 18.6836 34.2167 18.6336 34.35C18.5836 34.4833 18.5586 34.6167 18.5586 34.75C18.5586 35.0167 18.6586 35.25 18.8586 35.45C19.0586 35.65 19.2919 35.75 19.5586 35.75C19.6919 35.75 19.8169 35.725 19.9336 35.675C20.0502 35.625 20.1586 35.55 20.2586 35.45L27.0586 28.7L29.8586 31.5L23.0586 38.3C22.9586 38.4 22.8836 38.5083 22.8336 38.625C22.7836 38.7417 22.7586 38.8667 22.7586 39C22.7586 39.2667 22.8669 39.5 23.0836 39.7C23.3002 39.9 23.5419 40 23.8086 40ZM23.7586 44C22.5252 44 21.4336 43.5917 20.4836 42.775C19.5336 41.9583 18.9752 40.9333 18.8086 39.7C17.6752 39.5333 16.7252 39.0667 15.9586 38.3C15.1919 37.5333 14.7252 36.5833 14.5586 35.45C13.4252 35.2833 12.4836 34.8083 11.7336 34.025C10.9836 33.2417 10.5252 32.3 10.3586 31.2C9.09191 31.0333 8.05857 30.4833 7.25857 29.55C6.45857 28.6167 6.05857 27.5167 6.05857 26.25C6.05857 25.5833 6.18357 24.9417 6.43357 24.325C6.68357 23.7083 7.04191 23.1667 7.50857 22.7L19.1086 11.15L25.6586 17.7C25.7252 17.8 25.8252 17.875 25.9586 17.925C26.0919 17.975 26.2252 18 26.3586 18C26.6586 18 26.9086 17.9083 27.1086 17.725C27.3086 17.5417 27.4086 17.3 27.4086 17C27.4086 16.8667 27.3836 16.7333 27.3336 16.6C27.2836 16.4667 27.2086 16.3667 27.1086 16.3L19.9586 9.15C19.5919 8.75 19.1669 8.45833 18.6836 8.275C18.2002 8.09167 17.6919 8 17.1586 8C16.6586 8 16.1586 8.09167 15.6586 8.275C15.1586 8.45833 14.7086 8.75 14.3086 9.15L7.25857 16.25C6.95857 16.55 6.70857 16.9 6.50857 17.3C6.30857 17.7 6.17524 18.1 6.10857 18.5C6.04191 18.9 6.04191 19.3083 6.10857 19.725C6.17524 20.1417 6.30857 20.5333 6.50857 20.9L3.60857 23.8C3.04191 23.0333 2.62524 22.1917 2.35857 21.275C2.09191 20.3583 1.99191 19.4333 2.05857 18.5C2.12524 17.5667 2.35857 16.6583 2.75857 15.775C3.15857 14.8917 3.70857 14.1 4.40857 13.4L11.4586 6.35C12.2586 5.58333 13.1502 5 14.1336 4.6C15.1169 4.2 16.1252 4 17.1586 4C18.1919 4 19.2002 4.2 20.1836 4.6C21.1669 5 22.0419 5.58333 22.8086 6.35L23.3586 6.9L23.9086 6.35C24.7086 5.58333 25.6002 5 26.5836 4.6C27.5669 4.2 28.5752 4 29.6086 4C30.6419 4 31.6502 4.2 32.6336 4.6C33.6169 5 34.4919 5.58333 35.2586 6.35L43.7086 14.8C44.4752 15.5667 45.0586 16.45 45.4586 17.45C45.8586 18.45 46.0586 19.4667 46.0586 20.5C46.0586 21.5333 45.8586 22.5417 45.4586 23.525C45.0586 24.5083 44.4752 25.3833 43.7086 26.15L27.3086 42.5C26.8419 42.9667 26.3002 43.3333 25.6836 43.6C25.0669 43.8667 24.4252 44 23.7586 44Z" fill="#69FFC8"/>
</svg>
