<svg width="48" height="48" viewBox="0 0 48 48" fill="none" xmlns="http://www.w3.org/2000/svg">
<g clip-path="url(#clip0_49_226)">
<path d="M24.1782 42C19.6457 42 15.6962 40.475 12.3297 37.425C8.96316 34.375 7.03358 30.5667 6.54091 26H10.5807C11.0405 29.4667 12.5596 32.3333 15.1378 34.6C17.7161 36.8667 20.7295 38 24.1782 38C28.0209 38 31.2807 36.6417 33.9575 33.925C36.6343 31.2083 37.9727 27.9 37.9727 24C37.9727 20.1 36.6343 16.7917 33.9575 14.075C31.2807 11.3583 28.0209 10 24.1782 10C21.9119 10 19.7935 10.5333 17.8228 11.6C15.8522 12.6667 14.1936 14.1333 12.847 16H18.2662V20H6.44238V8H10.3837V12.7C12.0587 10.5667 14.1033 8.91667 16.5173 7.75C18.9313 6.58333 21.485 6 24.1782 6C26.6415 6 28.9488 6.475 31.1 7.425C33.2513 8.375 35.1234 9.65833 36.7164 11.275C38.3093 12.8917 39.5738 14.7917 40.5099 16.975C41.4459 19.1583 41.9139 21.5 41.9139 24C41.9139 26.5 41.4459 28.8417 40.5099 31.025C39.5738 33.2083 38.3093 35.1083 36.7164 36.725C35.1234 38.3417 33.2513 39.625 31.1 40.575C28.9488 41.525 26.6415 42 24.1782 42ZM29.696 32.4L22.2075 24.8V14H26.1488V23.2L32.4549 29.6L29.696 32.4Z" fill="#69FFC8"/>
</g>
<defs>
<clipPath id="clip0_49_226">
<rect width="47.2954" height="48" fill="white" transform="translate(0.530273)"/>
</clipPath>
</defs>
</svg>
