<svg width="48" height="48" viewBox="0 0 48 48" fill="none" xmlns="http://www.w3.org/2000/svg">
<g clip-path="url(#clip0_49_231)">
<path d="M12.3778 36.7998H12.37C11.9351 36.7998 11.5859 37.1582 11.5859 37.5998C11.5859 38.0413 11.9429 38.3997 12.3778 38.3997C12.8127 38.3997 13.1657 38.0413 13.1657 37.5998C13.1657 37.1582 12.8127 36.7998 12.3778 36.7998Z" fill="#00D48B"/>
<path d="M17.1073 36.7998H17.0995C16.6646 36.7998 16.3154 37.1582 16.3154 37.5998C16.3154 38.0413 16.6724 38.3997 17.1073 38.3997C17.5422 38.3997 17.8952 38.0413 17.8952 37.5998C17.8952 37.1582 17.5422 36.7998 17.1073 36.7998Z" fill="#00D48B"/>
<path d="M23.3897 25.6H17.0836C16.6477 25.6 16.2954 25.9584 16.2954 26.3999C16.2954 26.8415 16.6477 27.1999 17.0836 27.1999H23.3897C23.8256 27.1999 24.1779 26.8415 24.1779 26.3999C24.1779 25.9584 23.8256 25.6 23.3897 25.6Z" fill="#00D48B"/>
<path d="M20.2366 30.3999H17.0836C16.6477 30.3999 16.2954 30.7583 16.2954 31.1999C16.2954 31.6414 16.6477 31.9998 17.0836 31.9998H20.2366C20.6725 31.9998 21.0248 31.6414 21.0248 31.1999C21.0249 30.7583 20.6725 30.3999 20.2366 30.3999Z" fill="#00D48B"/>
<path d="M33.6374 27.9999C32.7679 27.9999 32.0608 27.2823 32.0608 26.3999C32.0608 25.9583 31.7085 25.5999 31.2726 25.5999C30.8367 25.5999 30.4844 25.9583 30.4844 26.3999C30.4844 27.8863 31.4925 29.1286 32.8491 29.4863V29.5999C32.8491 30.0415 33.2014 30.3999 33.6374 30.3999C34.0733 30.3999 34.4256 30.0415 34.4256 29.5999V29.4863C35.7822 29.1287 36.7903 27.8863 36.7903 26.3999C36.7903 24.635 35.3762 23.1999 33.6374 23.1999C32.7679 23.1999 32.0608 22.4823 32.0608 21.5999C32.0608 20.7175 32.7678 19.9998 33.6374 19.9998C34.5068 19.9998 35.2139 20.7174 35.2139 21.5999C35.2139 22.0414 35.5662 22.3998 36.0021 22.3998C36.438 22.3998 36.7903 22.0414 36.7903 21.5999C36.7903 20.1135 35.7822 18.8711 34.4256 18.5134V18.3998C34.4256 17.9583 34.0733 17.5999 33.6374 17.5999C33.2014 17.5999 32.8491 17.9583 32.8491 18.3998V18.5134C31.4925 18.871 30.4844 20.1135 30.4844 21.5999C30.4844 23.3647 31.8985 24.7998 33.6374 24.7998C34.5068 24.7998 35.2139 25.5174 35.2139 26.3999C35.2139 27.2822 34.5068 27.9999 33.6374 27.9999Z" fill="#00D48B"/>
<path d="M31.2958 36.7998H31.2879C30.853 36.7998 30.5039 37.1582 30.5039 37.5998C30.5039 38.0413 30.8609 38.3997 31.2958 38.3997C31.7307 38.3997 32.0837 38.0413 32.0837 37.5998C32.0837 37.1582 31.7308 36.7998 31.2958 36.7998Z" fill="#00D48B"/>
<path d="M40.7548 38.3999C41.1897 38.3999 41.5427 38.0415 41.5427 37.5999C41.5427 37.1583 41.1897 36.7999 40.7548 36.7999H40.7469C40.312 36.7999 39.9629 37.1583 39.9629 37.5999C39.9629 38.0415 40.3199 38.3999 40.7548 38.3999Z" fill="#00D48B"/>
<path d="M36.0253 36.7998H36.0174C35.5825 36.7998 35.2334 37.1582 35.2334 37.5998C35.2334 38.0413 35.5904 38.3997 36.0253 38.3997C36.4602 38.3997 36.8132 38.0413 36.8132 37.5998C36.8132 37.1582 36.4603 36.7998 36.0253 36.7998Z" fill="#00D48B"/>
<path d="M32.8488 9.59993H36.0018C36.4377 9.59993 36.79 9.24153 36.79 8.79997C36.79 8.3584 36.4377 8 36.0018 8H32.8488C32.4129 8 32.0605 8.3584 32.0605 8.79997C32.0605 9.24153 32.4129 9.59993 32.8488 9.59993Z" fill="#00D48B"/>
<path d="M21.8368 36.7998H21.829C21.3941 36.7998 21.0449 37.1582 21.0449 37.5998C21.0449 38.0413 21.4019 38.3997 21.8368 38.3997C22.2717 38.3997 22.6247 38.0413 22.6247 37.5998C22.6247 37.1582 22.2717 36.7998 21.8368 36.7998Z" fill="#00D48B"/>
<path d="M12.3541 27.1999H13.9307C14.3666 27.1999 14.7189 26.8415 14.7189 26.3999C14.7189 25.9584 14.3666 25.6 13.9307 25.6H12.3541C11.9182 25.6 11.5659 25.9584 11.5659 26.3999C11.5659 26.8415 11.9182 27.1999 12.3541 27.1999Z" fill="#00D48B"/>
<path d="M12.3541 31.9998H13.9307C14.3666 31.9998 14.7189 31.6414 14.7189 31.1999C14.7189 30.7583 14.3666 30.3999 13.9307 30.3999H12.3541C11.9182 30.3999 11.5659 30.7583 11.5659 31.1999C11.5659 31.6414 11.9182 31.9998 12.3541 31.9998Z" fill="#00D48B"/>
<path d="M43.8844 0H4.47182C4.03591 0 3.68359 0.358405 3.68359 0.799966V47.1998C3.68359 47.5229 3.87518 47.8149 4.16994 47.939C4.26767 47.9798 4.37011 47.9997 4.47182 47.9997C4.67679 47.9997 4.87854 47.9182 5.02911 47.7653L9.20134 43.531L13.3736 47.7653C13.6818 48.0782 14.18 48.0782 14.4882 47.7653L17.0838 45.131L19.6795 47.7653C19.9878 48.0782 20.486 48.0782 20.7941 47.7653L23.3898 45.131L24.4091 46.1654C24.7173 46.4782 25.2155 46.4782 25.5236 46.1654L28.1193 43.5311L30.715 46.1654C31.0233 46.4782 31.5215 46.4782 31.8296 46.1654L33.6371 44.331L35.4446 46.1654C35.7528 46.4782 36.251 46.4782 36.5591 46.1654L40.7314 41.931L43.3271 44.5654C43.3429 44.5822 43.3594 44.5974 43.3768 44.6118C43.3768 44.6126 43.3775 44.6126 43.3775 44.6126V44.6135C43.5067 44.7231 43.6707 44.791 43.8497 44.7991C43.8789 44.7999 43.908 44.7999 43.9388 44.7983H43.9396C44.0988 44.7863 44.2454 44.7279 44.3644 44.6343C44.407 44.6015 44.4456 44.5639 44.4802 44.5231C44.5993 44.3831 44.6718 44.2015 44.6726 44.0015V43.9999V0.799966C44.6728 0.358405 44.3204 0 43.8844 0ZM43.0962 42.0686L41.2887 40.2342C40.9805 39.9215 40.4823 39.9215 40.1742 40.2342L36.0019 44.4686L34.1945 42.6342C33.8863 42.3214 33.388 42.3214 33.0799 42.6342L31.2724 44.4686L28.6767 41.8343C28.3686 41.5214 27.8703 41.5214 27.5621 41.8343L24.9664 44.4686L23.9472 43.4342C23.6389 43.1214 23.1408 43.1214 22.8326 43.4342L20.2369 46.0686L17.6412 43.4342C17.4875 43.2782 17.2857 43.1998 17.0839 43.1998C16.8821 43.1998 16.6804 43.2782 16.5266 43.4342L13.931 46.0686L9.75872 41.8342C9.45047 41.5213 8.9523 41.5213 8.64414 41.8342L5.26013 45.2686V1.60002H43.0963V42.0686H43.0962Z" fill="#69FFC8"/>
<path d="M7.64834 38.3999C8.08325 38.3999 8.43626 38.0415 8.43626 37.5999C8.43626 37.1583 8.08325 36.7999 7.64834 36.7999H7.64049C7.20557 36.7999 6.85645 37.1583 6.85645 37.5999C6.85645 38.0415 7.21342 38.3999 7.64834 38.3999Z" fill="#00D48B"/>
<path d="M12.3541 22.3999H13.9307C14.3666 22.3999 14.7189 22.0415 14.7189 21.5999C14.7189 21.1583 14.3666 20.7999 13.9307 20.7999H12.3541C11.9182 20.7999 11.5659 21.1583 11.5659 21.5999C11.5659 22.0415 11.9182 22.3999 12.3541 22.3999Z" fill="#00D48B"/>
<path d="M26.5663 38.3999C27.0012 38.3999 27.3542 38.0415 27.3542 37.5999C27.3542 37.1583 27.0012 36.7999 26.5663 36.7999H26.5585C26.1235 36.7999 25.7744 37.1583 25.7744 37.5999C25.7744 38.0415 26.1314 38.3999 26.5663 38.3999Z" fill="#00D48B"/>
<path d="M17.0836 17.5999H21.8132C22.2491 17.5999 22.6014 17.2415 22.6014 16.8C22.6014 16.3584 22.2491 16 21.8132 16H17.0836C16.6477 16 16.2954 16.3584 16.2954 16.8C16.2954 17.2415 16.6477 17.5999 17.0836 17.5999Z" fill="#00D48B"/>
<path d="M12.3541 17.5999H13.9307C14.3666 17.5999 14.7189 17.2415 14.7189 16.8C14.7189 16.3584 14.3666 16 13.9307 16H12.3541C11.9182 16 11.5659 16.3584 11.5659 16.8C11.5659 17.2415 11.9182 17.5999 12.3541 17.5999Z" fill="#00D48B"/>
<path d="M24.9661 20.7999H17.0836C16.6477 20.7999 16.2954 21.1583 16.2954 21.5999C16.2954 22.0415 16.6477 22.3999 17.0836 22.3999H24.9661C25.402 22.3999 25.7544 22.0415 25.7544 21.5999C25.7544 21.1583 25.402 20.7999 24.9661 20.7999Z" fill="#00D48B"/>
<path d="M12.3541 9.59993H24.9662C25.4021 9.59993 25.7544 9.24153 25.7544 8.79997C25.7544 8.3584 25.4021 8 24.9662 8H12.3541C11.9182 8 11.5659 8.3584 11.5659 8.79997C11.5659 9.24153 11.9182 9.59993 12.3541 9.59993Z" fill="#00D48B"/>
</g>
<defs>
<clipPath id="clip0_49_231">
<rect width="47.2954" height="48" fill="white" transform="translate(0.530273)"/>
</clipPath>
</defs>
</svg>
