<svg width="48" height="48" viewBox="0 0 48 48" fill="none" xmlns="http://www.w3.org/2000/svg">
<path d="M16.2955 34V32.85C16.2955 31.3834 17.018 30.2084 18.4632 29.325C19.9083 28.4417 21.8133 28 24.178 28C26.5428 28 28.4478 28.4417 29.8929 29.325C31.338 30.2084 32.0606 31.3834 32.0606 32.85V34H16.2955ZM24.178 26C23.0942 26 22.1663 25.6084 21.3945 24.825C20.6227 24.0417 20.2368 23.1 20.2368 22C20.2368 20.9 20.6227 19.9584 21.3945 19.175C22.1663 18.3917 23.0942 18 24.178 18C25.2619 18 26.1897 18.3917 26.9616 19.175C27.7334 19.9584 28.1193 20.9 28.1193 22C28.1193 23.1 27.7334 24.0417 26.9616 24.825C26.1897 25.6084 25.2619 26 24.178 26ZM6.44226 18.4V33.7C6.90208 34.1334 7.46043 34.5084 8.11731 34.825C8.77419 35.1417 9.5296 35.3834 10.3835 35.55V19.7C9.66098 19.5334 8.96304 19.3417 8.28974 19.125C7.61644 18.9084 7.00061 18.6667 6.44226 18.4ZM41.9138 18.35C41.3555 18.6167 40.7479 18.8584 40.091 19.075C39.4341 19.2917 38.7279 19.4834 37.9725 19.65V35.55C38.8265 35.3834 39.5819 35.1417 40.2388 34.825C40.8957 34.5084 41.454 34.1334 41.9138 33.7V18.35ZM14.3248 40.3C10.5478 39.8334 7.63286 39.05 5.5801 37.95C3.52735 36.85 2.50098 35.5334 2.50098 34V14C2.50098 12.1 4.36488 10.6334 8.09267 9.60005C11.8205 8.56672 17.1823 8.05005 24.178 8.05005C31.1738 8.05005 36.5356 8.56672 40.2634 9.60005C43.9912 10.6334 45.8551 12.1 45.8551 14V34C45.8551 35.5334 44.8287 36.85 42.776 37.95C40.7232 39.05 37.8083 39.8334 34.0312 40.3V16.3C35.7063 16.0334 37.1925 15.7084 38.4898 15.325C39.7872 14.9417 40.715 14.5667 41.2734 14.2C39.8611 13.6334 37.447 13.125 34.0312 12.675C30.6155 12.225 27.3311 12 24.178 12C21.025 12 17.7406 12.225 14.3248 12.675C10.909 13.125 8.49501 13.6334 7.08272 14.2C7.64107 14.6 8.56891 14.9834 9.86625 15.35C11.1636 15.7167 12.6498 16.0334 14.3248 16.3V40.3Z" fill="#69FFC8"/>
</svg>
